<mxfile host="Electron" agent="Mozilla/5.0 (X11; Linux x86_64) AppleWebKit/537.36 (KHTML, like Gecko) draw.io/28.0.6 Chrome/138.0.7204.100 Electron/37.2.3 Safari/537.36" version="28.0.6">
  <diagram name="Page-1" id="Os7JeODWuEgO7NTywMPS">
    <mxGraphModel dx="1360" dy="843" grid="1" gridSize="10" guides="1" tooltips="1" connect="1" arrows="1" fold="1" page="1" pageScale="1" pageWidth="850" pageHeight="1100" math="0" shadow="0">
      <root>
        <mxCell id="0" />
        <mxCell id="1" parent="0" />
        <mxCell id="o3bp0uEpjWJnOmEBgbhN-10" value="" style="rounded=0;whiteSpace=wrap;html=1;fillColor=none;" vertex="1" parent="1">
          <mxGeometry x="280" y="120" width="320" height="320" as="geometry" />
        </mxCell>
        <mxCell id="KuT0zEfDjnZi_ZdxeDcT-4" value="Register File" style="rounded=0;whiteSpace=wrap;html=1;fontSize=18;fillColor=#99CCFF;strokeWidth=2;" parent="1" vertex="1">
          <mxGeometry x="280" y="120" width="160" height="80" as="geometry" />
        </mxCell>
        <mxCell id="KuT0zEfDjnZi_ZdxeDcT-5" value="Reservation Stations" style="rounded=0;whiteSpace=wrap;html=1;fontSize=18;fillColor=#d5e8d4;strokeColor=#000000;strokeWidth=2;" parent="1" vertex="1">
          <mxGeometry x="280" y="200" width="160" height="80" as="geometry" />
        </mxCell>
        <mxCell id="KuT0zEfDjnZi_ZdxeDcT-6" value="Execution Units" style="rounded=0;whiteSpace=wrap;html=1;fontSize=18;fillColor=#f8cecc;strokeColor=#000000;strokeWidth=2;" parent="1" vertex="1">
          <mxGeometry x="280" y="280" width="160" height="80" as="geometry" />
        </mxCell>
        <mxCell id="KuT0zEfDjnZi_ZdxeDcT-7" value="" style="endArrow=classic;startArrow=classic;html=1;rounded=0;fontSize=13;strokeWidth=4;" parent="1" edge="1" source="o3bp0uEpjWJnOmEBgbhN-10">
          <mxGeometry width="50" height="50" relative="1" as="geometry">
            <mxPoint x="240" y="400" as="sourcePoint" />
            <mxPoint x="519" y="400" as="targetPoint" />
          </mxGeometry>
        </mxCell>
        <mxCell id="KuT0zEfDjnZi_ZdxeDcT-8" value="" style="endArrow=classic;startArrow=classic;html=1;rounded=0;exitX=0.5;exitY=0;exitDx=0;exitDy=0;fontSize=13;strokeWidth=4;" parent="1" source="o3bp0uEpjWJnOmEBgbhN-13" edge="1">
          <mxGeometry width="50" height="50" relative="1" as="geometry">
            <mxPoint x="370" y="390" as="sourcePoint" />
            <mxPoint x="560" y="80" as="targetPoint" />
          </mxGeometry>
        </mxCell>
        <mxCell id="KuT0zEfDjnZi_ZdxeDcT-9" value="" style="endArrow=classic;startArrow=classic;html=1;rounded=0;fontSize=13;strokeWidth=4;entryX=1;entryY=0.5;entryDx=0;entryDy=0;" parent="1" edge="1" target="o3bp0uEpjWJnOmEBgbhN-13">
          <mxGeometry width="50" height="50" relative="1" as="geometry">
            <mxPoint x="680" y="400" as="sourcePoint" />
            <mxPoint x="640" y="400" as="targetPoint" />
          </mxGeometry>
        </mxCell>
        <mxCell id="KuT0zEfDjnZi_ZdxeDcT-10" value="" style="endArrow=classic;startArrow=classic;html=1;rounded=0;exitX=0.878;exitY=1.003;exitDx=0;exitDy=0;exitPerimeter=0;fontSize=13;strokeWidth=4;" parent="1" edge="1">
          <mxGeometry width="50" height="50" relative="1" as="geometry">
            <mxPoint x="560.96" y="440.96000000000004" as="sourcePoint" />
            <mxPoint x="560" y="520" as="targetPoint" />
          </mxGeometry>
        </mxCell>
        <mxCell id="KuT0zEfDjnZi_ZdxeDcT-12" value="" style="endArrow=classic;html=1;rounded=0;entryX=0;entryY=0.25;entryDx=0;entryDy=0;fontSize=13;strokeWidth=4;" parent="1" target="KuT0zEfDjnZi_ZdxeDcT-4" edge="1">
          <mxGeometry width="50" height="50" relative="1" as="geometry">
            <mxPoint x="120" y="140" as="sourcePoint" />
            <mxPoint x="250" y="110" as="targetPoint" />
          </mxGeometry>
        </mxCell>
        <mxCell id="KuT0zEfDjnZi_ZdxeDcT-14" value="" style="endArrow=classic;html=1;rounded=0;exitX=0;exitY=0.75;exitDx=0;exitDy=0;strokeWidth=4;" parent="1" edge="1">
          <mxGeometry width="50" height="50" relative="1" as="geometry">
            <mxPoint x="280" y="320" as="sourcePoint" />
            <mxPoint x="120" y="320" as="targetPoint" />
          </mxGeometry>
        </mxCell>
        <mxCell id="o3bp0uEpjWJnOmEBgbhN-1" value="Data&lt;br&gt;Memory" style="rounded=0;whiteSpace=wrap;html=1;fontSize=18;fillColor=#dae8fc;strokeColor=#000000;strokeWidth=2;" vertex="1" parent="1">
          <mxGeometry x="440" y="120" width="80" height="240" as="geometry" />
        </mxCell>
        <mxCell id="o3bp0uEpjWJnOmEBgbhN-2" value="Instructions" style="text;strokeColor=none;fillColor=none;align=left;verticalAlign=middle;spacingLeft=4;spacingRight=4;overflow=hidden;points=[[0,0.5],[1,0.5]];portConstraint=eastwest;rotatable=0;whiteSpace=wrap;html=1;fontSize=18;" vertex="1" parent="1">
          <mxGeometry x="140" y="110" width="110" height="30" as="geometry" />
        </mxCell>
        <mxCell id="o3bp0uEpjWJnOmEBgbhN-4" value="" style="endArrow=classic;html=1;rounded=0;exitX=0;exitY=0.75;exitDx=0;exitDy=0;fontSize=13;strokeWidth=4;" edge="1" parent="1" source="KuT0zEfDjnZi_ZdxeDcT-4">
          <mxGeometry width="50" height="50" relative="1" as="geometry">
            <mxPoint x="280" y="180" as="sourcePoint" />
            <mxPoint x="120" y="180" as="targetPoint" />
          </mxGeometry>
        </mxCell>
        <mxCell id="o3bp0uEpjWJnOmEBgbhN-3" value="Loop Iterations" style="text;strokeColor=none;fillColor=none;align=left;verticalAlign=middle;spacingLeft=4;spacingRight=4;overflow=hidden;points=[[0,0.5],[1,0.5]];portConstraint=eastwest;rotatable=0;whiteSpace=wrap;html=1;fontSize=18;" vertex="1" parent="1">
          <mxGeometry x="140" y="150" width="150" height="30" as="geometry" />
        </mxCell>
        <mxCell id="o3bp0uEpjWJnOmEBgbhN-5" value="Configuration" style="text;strokeColor=none;fillColor=none;align=left;verticalAlign=middle;spacingLeft=4;spacingRight=4;overflow=hidden;points=[[0,0.5],[1,0.5]];portConstraint=eastwest;rotatable=0;whiteSpace=wrap;html=1;fontSize=18;" vertex="1" parent="1">
          <mxGeometry x="140" y="290" width="130" height="30" as="geometry" />
        </mxCell>
        <mxCell id="o3bp0uEpjWJnOmEBgbhN-11" value="" style="endArrow=classic;startArrow=classic;html=1;rounded=0;fontSize=13;strokeWidth=4;exitX=0;exitY=0.5;exitDx=0;exitDy=0;" edge="1" parent="1" source="o3bp0uEpjWJnOmEBgbhN-13">
          <mxGeometry width="50" height="50" relative="1" as="geometry">
            <mxPoint x="240" y="400" as="sourcePoint" />
            <mxPoint x="200" y="400" as="targetPoint" />
          </mxGeometry>
        </mxCell>
        <mxCell id="o3bp0uEpjWJnOmEBgbhN-13" value="Network&lt;br&gt;Node" style="rounded=0;whiteSpace=wrap;html=1;fillColor=#fff2cc;strokeColor=#000000;strokeWidth=2;fontSize=18;" vertex="1" parent="1">
          <mxGeometry x="520" y="360" width="80" height="80" as="geometry" />
        </mxCell>
      </root>
    </mxGraphModel>
  </diagram>
</mxfile>
